<?xml version="1.0" encoding="utf-8"?>
<!-- Generator: Adobe Illustrator 16.0.0, SVG Export Plug-In . SVG Version: 6.00 Build 0)  -->
<!DOCTYPE svg PUBLIC "-//W3C//DTD SVG 1.1//EN" "http://www.w3.org/Graphics/SVG/1.1/DTD/svg11.dtd">
<svg version="1.1" id="Layer_1" xmlns="http://www.w3.org/2000/svg" xmlns:xlink="http://www.w3.org/1999/xlink" x="0px" y="0px"
	 width="816.766px" height="273.516px" viewBox="0 0 816.766 273.516" enable-background="new 0 0 816.766 273.516"
	 xml:space="preserve">
<polygon fill="#15417C" points="268.166,86.03 173.136,86.03 175.952,0 98.52,86.03 0,86.03 58.089,165.584 13.741,256.621 
	120.035,203.112 209.433,273.515 173.136,161.903 "/>
<rect x="93.087" y="86.03" fill="#FFFFFF" width="46.275" height="113.887"/>
<rect x="58.089" y="118.556" fill="#FCFCFC" width="115.046" height="43.347"/>
<text transform="matrix(1 0 0 1 279.583 100.2356)" fill="#1E3A6B" font-family="'ErasITC-Medium'" font-size="33">HOSPITALES</text>
<path fill="#FFFFFF" d="M175.661,8.898"/>
<path fill="#FFFFFF" d="M167.944,8.898"/>
<text transform="matrix(1 0 0 1 251.5068 199.9163)" fill="#5B8FCF" font-family="'ErasITC-Demi'" font-size="108">Star</text>
<text transform="matrix(1 0 0 1 450.1567 199.9163)" fill="#1A3E7B" font-family="'ErasITC-Demi'" font-size="108">Médica</text>
<polygon fill="#FFFFFF" points="175.596,10.889 166.151,10.889 169.884,6.742 175.731,6.742 "/>
<polygon fill="#FFFFFF" points="175.38,17.467 160.151,17.467 163.964,13.32 175.481,13.32 "/>
<polygon fill="#FFFFFF" points="175.139,24.849 153.602,24.887 157.335,20.74 175.274,20.702 "/>
<polygon fill="#FFFFFF" points="174.888,32.493 146.72,32.447 150.453,28.3 175.024,28.346 "/>
<polygon fill="#FFFFFF" points="174.649,39.8 140.359,39.572 144.092,35.424 174.785,35.653 "/>
<polygon fill="#FFFFFF" points="174.346,48.889 131.854,48.995 135.587,44.847 174.481,44.742 "/>
<polygon fill="#FFFFFF" points="174.054,59.222 122.649,59.221 126.382,55.073 174.189,55.075 "/>
<polygon fill="#FFFFFF" points="173.72,68.681 114.169,68.643 117.902,64.495 173.856,64.533 "/>
<polygon fill="#FFFFFF" points="173.429,77.639 106.076,77.635 109.809,73.487 173.564,73.492 "/>
<polygon fill="#FFFFFF" points="173.155,85.438 99.214,85.302 102.947,81.154 173.291,81.291 "/>
<polygon fill="#FFFFFF" points="258.017,94.133 139.362,94.133 139.362,89.508 263.809,89.508 "/>
<polygon fill="#FFFFFF" points="247.529,102.548 139.362,102.548 139.362,97.923 253.27,97.923 "/>
<polygon fill="#FFFFFF" points="236.087,111.633 139.362,111.633 139.362,107.008 241.891,107.008 "/>
<polygon fill="#FFFFFF" points="224.554,120.868 139.509,120.868 139.362,116.243 230.323,116.243 "/>
<polygon fill="#FFFFFF" points="213.396,129.758 173.135,129.758 173.135,125.133 219.189,125.133 "/>
<polygon fill="#FFFFFF" points="201.732,139.071 173.135,139.071 173.135,134.446 207.525,134.446 "/>
<polygon fill="#FFFFFF" points="189.286,149.008 173.135,149.008 173.135,144.383 195.079,144.383 "/>
<polygon fill="#FFFFFF" points="177.857,158.133 173.135,158.133 173.135,153.508 183.65,153.508 "/>
</svg>
